<svg width="130" height="106" viewBox="0 0 130 106" fill="none" xmlns="http://www.w3.org/2000/svg">
<g clip-path="url(#clip0)">
<path opacity="0.27" d="M0.117905 75.7226C0.117905 75.7226 -2.44437 32.7871 16.2527 26.6569C34.9497 20.5267 42.5153 13.2941 45.2625 8.98115C48.0098 4.66822 63.1227 -4.26658 75.925 2.38455C88.7272 9.03567 87.7054 19.8725 100.001 20.7206C112.297 21.5686 124.963 23.9129 124.963 34.4862C124.963 45.0596 129.657 68.1507 129.657 68.1507C129.657 68.1507 23.9547 95.6002 0.117905 75.7226Z" fill="#68E1FD"/>
<path d="M104.583 41.0153V49.0687L124.969 45.0495V38.9921C124.968 38.1239 124.77 37.2673 124.393 36.4854C124.015 35.7036 123.466 35.0166 122.786 34.4752C122.107 33.9338 121.314 33.5518 120.467 33.3575C119.62 33.1632 118.74 33.1615 117.892 33.3525L109.098 35.3545C107.814 35.6445 106.666 36.3634 105.845 37.3925C105.024 38.4216 104.579 39.6995 104.583 41.0153Z" fill="#68E1FD"/>
<path d="M122.368 45.5705L120.5 53.0939C120.5 53.0939 116.018 61.4593 108.298 58.3881C100.578 55.317 106.291 46.9819 106.291 46.9819L122.368 45.5705Z" fill="#68E1FD"/>
<path d="M115.772 69.125L114.866 58.3881L116.952 56.9222L117.44 71.1301L115.772 71.6692V69.125Z" fill="#68E1FD"/>
<path d="M115.772 69.125L114.866 58.3881L116.952 56.9222L117.44 71.1301L115.772 71.6692V69.125Z" fill="url(#paint0_linear)"/>
<path d="M104.583 41.0153V49.0687L124.969 45.0495V38.9921C124.968 38.1239 124.77 37.2673 124.393 36.4854C124.015 35.7036 123.466 35.0166 122.786 34.4752C122.107 33.9338 121.314 33.5518 120.467 33.3575C119.62 33.1632 118.74 33.1615 117.892 33.3525L109.098 35.3545C107.814 35.6445 106.666 36.3634 105.845 37.3925C105.024 38.4216 104.579 39.6995 104.583 41.0153Z" fill="url(#paint1_linear)"/>
<path d="M122.368 45.5705L120.5 53.0939C120.5 53.0939 116.018 61.4593 108.298 58.3881C100.578 55.317 106.291 46.9819 106.291 46.9819L122.368 45.5705Z" fill="url(#paint2_linear)"/>
<path d="M56.0578 45.9794L53.3439 49.9379L49.3898 47.4513L47.3218 49.096L53.1316 53.5058L57.9348 51.6674L56.0578 45.9794Z" fill="#68E1FD"/>
<path opacity="0.25" d="M56.0578 45.9794L53.3439 49.9379L49.3898 47.4513L47.3218 49.096L53.1316 53.5058L57.9348 51.6674L56.0578 45.9794Z" fill="url(#paint3_linear)"/>
<path d="M43.5709 44.4135C43.5709 44.4135 45.3902 44.2924 45.8602 44.7164C46.3783 45.264 46.8662 45.8393 47.3218 46.4397L49.0229 47.8299L47.4582 48.7083L44.996 47.0213L43.5709 44.4135Z" fill="url(#paint4_linear)"/>
<path d="M129.551 78.1719C129.254 80.0087 128.793 81.815 128.172 83.5691C125.233 91.877 117.786 100.993 99.7621 103.84C67.5199 108.926 19.6522 106.112 3.94199 83.4843C3.24165 82.4747 2.60466 81.4228 2.03469 80.3344C1.25911 78.8571 0.617737 77.3134 0.118286 75.7216C0.118286 75.7216 7.05008 74.077 13.8242 74.8554C20.5983 75.6338 31.2204 72.811 38.6889 73.6197C46.1574 74.4284 55.5545 74.3526 55.5545 74.3526C55.5545 74.3526 107.679 69.7005 117.434 71.1331C127.189 72.5657 129.651 68.1498 129.651 68.1498C130.148 71.4748 130.114 74.8574 129.551 78.1719Z" fill="#68E1FD"/>
<path d="M27.1268 52.2398C27.1268 52.2398 58.0137 65.009 114.099 50.5104C114.099 50.5104 111.142 67.9408 95.5836 72.3173C80.025 76.6939 55.6121 77.024 45.6783 72.3173C28.7157 64.273 27.1268 52.2398 27.1268 52.2398Z" fill="#68E1FD"/>
<path opacity="0.25" d="M27.1268 52.2398C27.1268 52.2398 58.0137 65.009 114.099 50.5104C114.099 50.5104 111.142 67.9408 95.5836 72.3173C80.025 76.6939 55.6121 77.024 45.6783 72.3173C28.7157 64.273 27.1268 52.2398 27.1268 52.2398Z" fill="url(#paint5_linear)"/>
<path d="M27.1268 52.2398L24.334 50.7436V46.9819C24.334 46.9819 27.4603 54.2933 49.8689 54.2933C57.3222 54.2933 63.2655 55.002 70.6431 54.2933C94.492 52.0005 116.952 45.9794 116.952 45.9794L116.464 49.5018L114.099 50.5104C114.099 50.5104 51.0242 67.0201 27.1268 52.2398Z" fill="#68E1FD"/>
<path opacity="0.25" d="M27.1268 52.2398L24.334 50.7436V46.9819C24.334 46.9819 35.5262 54.6567 57.9348 54.6567C89.4857 54.6567 116.952 45.9794 116.952 45.9794L116.464 49.5018L114.099 50.5104C114.099 50.5104 51.0242 67.0201 27.1268 52.2398Z" fill="url(#paint6_linear)"/>
<path d="M53.2014 35.3273C53.2014 35.3273 53.6229 38.2318 53.2014 38.6589C52.7799 39.0859 54.1808 39.4494 54.3325 40.2157C54.4841 40.9819 55.5029 41.5211 56.9614 41.1061C57.3699 40.9884 57.8059 41.0086 58.2017 41.1636C58.5976 41.3186 58.9311 41.5996 59.1508 41.9632C59.1508 41.9632 60.488 41.3938 61.1581 40.6245C61.1581 40.6245 60.206 37.2233 60.1544 36.0087C60.1029 34.7942 55.697 32.4348 53.2014 35.3273Z" fill="url(#paint7_linear)"/>
<path d="M52.5767 35.0032C52.8042 35.0032 62.562 37.4716 62.562 37.4716C62.562 37.4716 61.4401 33.2314 61.807 31.2627C62.1739 29.294 56.0457 28.5762 55.4392 28.8397C54.8328 29.1032 54.3931 31.2021 53.2863 31.72C52.1795 32.2379 50.1176 34.4944 50.1176 34.4944L52.5767 35.0032Z" fill="#68E1FD"/>
<path opacity="0.25" d="M62.5651 37.4716C62.5651 37.4716 52.8072 35.0032 52.5798 35.0032L50.1115 34.4853L50.1691 34.4217L51.0576 34.6095C51.285 34.6095 61.0429 37.0779 61.0429 37.0779C61.0429 37.0779 59.9209 32.8376 60.2879 30.869C60.4395 30.0573 59.4843 29.4606 58.2684 29.0517C60.0877 29.4091 62.0223 30.1269 61.8101 31.2627C61.4431 33.2283 62.5651 37.4716 62.5651 37.4716Z" fill="url(#paint8_linear)"/>
<path d="M50.1115 34.4853C50.1115 34.4853 49.0926 34.9063 53.2651 35.827C53.2651 35.827 53.0528 35.2425 53.3439 35.1728L50.1115 34.4853Z" fill="#68E1FD"/>
<path d="M62.5651 37.4716C62.5651 37.4716 62.9987 37.8502 61.9768 37.9441C61.4818 38.0107 60.98 38.0107 60.4849 37.9441L60.2697 36.8901L62.5651 37.4716Z" fill="#68E1FD"/>
<path d="M50.1115 34.4853C50.1115 34.4853 49.0926 34.9063 53.2651 35.827C53.2651 35.827 53.0528 35.2425 53.3439 35.1728L50.1115 34.4853Z" fill="url(#paint9_linear)"/>
<path d="M62.5651 37.4716C62.5651 37.4716 62.9987 37.8502 61.9768 37.9441C61.4818 38.0107 60.98 38.0107 60.4849 37.9441L60.2697 36.8901L62.5651 37.4716Z" fill="url(#paint10_linear)"/>
<path d="M57.9348 36.3056L58.0318 37.5383C58.0318 37.5383 58.4048 36.566 58.9415 36.8901C59.4782 37.2142 58.4411 38.6316 58.4411 38.6316L59.8299 39.3767L60.1635 39.1859L60.6911 39.3767L60.8852 39.1859L61.0519 38.8648C61.0519 38.8648 60.4728 37.7472 60.5365 37.4716C60.5747 37.3085 60.5981 37.1423 60.6062 36.9749L57.9348 36.3056Z" fill="#232E30"/>
<path d="M61.1581 40.6094C61.1581 40.6094 56.7219 42.5932 56.3064 43.6593C55.891 44.7255 55.5726 54.6295 55.5726 54.6295L70.6522 54.2933C70.6522 54.2933 69.1148 42.5781 61.1581 40.6094Z" fill="#68E1FD"/>
<path d="M61.81 41.4029L59.2659 42.9415C59.2659 42.9415 56.6127 47.5452 56.3398 48.6174C56.0669 49.6896 55.9789 53.951 55.9789 53.951L55.0935 52.1853C55.0935 52.1853 55.5362 47.9844 56.0669 46.8274C56.7308 45.4127 57.5289 44.0649 58.4502 42.8022C59.1507 41.9481 59.7693 41.203 59.7693 41.203L61.4643 40.0915L62.0314 40.8729L61.81 41.4029Z" fill="#68E1FD"/>
<path opacity="0.25" d="M61.81 41.4029L59.2659 42.9415C59.2659 42.9415 56.6127 47.5452 56.3398 48.6174C56.0669 49.6896 55.9789 53.951 55.9789 53.951L55.0935 52.1853C55.0935 52.1853 55.5362 47.9844 56.0669 46.8274C56.7308 45.4127 57.5289 44.0649 58.4502 42.8022C59.1507 41.9481 59.7693 41.203 59.7693 41.203L61.4643 40.0915L62.0314 40.8729L61.81 41.4029Z" fill="url(#paint11_linear)"/>
<path d="M61.5735 42.9415C61.5735 42.9415 58.2713 47.3423 58.0894 49.4049C57.9075 51.4674 54.6751 52.3155 54.6751 52.3155L48.7075 48.7234L46.5516 51.4674L49.8689 54.2933H60.1574C60.1574 54.2933 64.2874 49.9379 64.4542 48.6174C64.6209 47.2969 65.094 43.6775 61.5735 42.9415Z" fill="#68E1FD"/>
<path opacity="0.25" d="M64.4511 48.6174C64.2844 49.9379 62.565 54.0692 62.565 54.0692L49.8689 54.3054L46.5516 51.4917L47.0185 50.8859L48.7075 48.7355L54.6751 52.3276C54.6751 52.3276 57.9044 51.4796 58.0894 49.417C58.2744 47.3544 61.5735 42.9537 61.5735 42.9537C63.1503 43.2838 63.9235 44.1924 64.2844 45.2101C64.7301 46.4579 64.5451 47.8875 64.4511 48.6174Z" fill="url(#paint12_linear)"/>
<path d="M64.1995 47.4422C64.0297 48.7628 58.4381 54.1933 58.4381 54.1933L51.3456 54.2842L47.0216 50.8647L48.7106 48.7143L54.6781 52.3064C54.6781 52.3064 57.9075 51.4584 58.0925 49.3958C58.2774 47.3332 61.5766 42.9324 61.5766 42.9324C63.1534 43.2626 63.9266 44.1712 64.2874 45.1889C64.3416 45.9409 64.3121 46.6967 64.1995 47.4422Z" fill="#68E1FD"/>
<path d="M48.3134 48.9566C48.3134 48.9566 46.8215 47.312 46.5516 46.3337C46.2817 45.3554 44.6595 45.1768 44.5564 45.0495C44.4533 44.9223 42.4338 44.8951 42.4338 44.8951C42.4338 44.8951 42.2003 45.0223 42.1518 45.6674C42.1032 46.3125 42.5369 47.7663 43.2585 48.6325C43.9802 49.4988 45.4721 49.5745 45.5479 49.5745C45.6237 49.5745 46.9033 51.0192 46.9033 51.0192C46.9033 51.0192 48.7015 49.944 48.3134 48.9566Z" fill="url(#paint13_linear)"/>
<path d="M43.8074 44.9254C43.8074 44.9254 41.239 37.9441 28.2912 34.8336C15.3433 31.7231 7.25928 35.1668 7.25928 35.1668C7.25928 35.1668 18.7819 32.6014 30.3471 35.9694C40.484 38.9194 42.8977 44.9072 42.8977 44.9072L43.8074 44.9254Z" fill="#68E1FD"/>
<path d="M7.25928 35.1546L7.75354 77.027H8.1629L7.44121 35.1183C7.44121 35.1183 7.39573 34.9881 7.25928 35.1546Z" fill="#68E1FD"/>
<path opacity="0.25" d="M65.6064 54.057L66.037 54.0934L56.1518 54.2933L56.1306 54.2479L65.6064 54.057Z" fill="url(#paint14_linear)"/>
<path opacity="0.25" d="M70.6522 54.2933L68.4053 54.1055C68.2415 52.9727 67.1378 46.885 62.1951 42.1419L60.0392 40.994C60.4942 40.6593 60.9713 40.3557 61.4674 40.0854L62.0344 40.8668L64.4057 42.1419C69.8789 47.3938 70.6522 54.2933 70.6522 54.2933Z" fill="url(#paint15_linear)"/>
<path opacity="0.25" d="M68.4235 54.2933L66.037 54.0934L67.8261 54.057L68.3962 54.1055C68.4174 54.2176 68.4235 54.2933 68.4235 54.2933Z" fill="url(#paint16_linear)"/>
<path d="M112.167 56.0499C112.167 56.0499 111.943 56.7829 111.561 57.8127C110.73 60.0237 109.135 63.6067 107.376 64.2942C107.376 64.2942 68.5235 76.6393 38.5737 68.1437C38.5737 68.1437 33.1156 64.2881 30.7868 60.8202C30.39 60.2593 30.0831 59.6401 29.8771 58.9848C29.8771 58.9848 56.7613 66.9019 97.1513 60.2599L112.167 56.0499Z" fill="#68E1FD"/>
<path opacity="0.25" d="M111.555 57.8127C110.724 60.0237 109.129 63.6067 107.37 64.2942C107.37 64.2942 68.5174 76.6393 38.5676 68.1437C38.5676 68.1437 33.1095 64.2881 30.7807 60.8202C35.79 62.1044 61.1035 67.7863 97.1513 61.853L111.555 57.8127Z" fill="url(#paint17_linear)"/>
<path d="M58.1197 37.9441C58.1197 37.9441 58.4017 37.8896 58.3926 37.6715C58.3835 37.4535 58.5897 36.9991 58.7262 37.09C58.8626 37.1809 58.8141 37.9744 58.3714 38.2621C57.9287 38.5499 58.1197 37.9441 58.1197 37.9441Z" fill="url(#paint18_linear)"/>
<path opacity="0.25" d="M129.551 78.1719C128.035 87.461 121.84 100.354 99.7561 103.84C66.0765 109.156 15.3434 105.846 2.02863 80.3253C2.54071 80.2336 3.06142 80.1991 3.58115 80.2223C5.13065 80.2829 6.8166 80.5525 8.12958 79.7226C8.89675 79.235 9.4183 78.4293 10.1824 77.9356C11.6773 76.9695 13.6271 77.4298 15.3828 77.7206C24.6949 79.2713 34.4862 75.1128 43.5497 77.7539C44.8505 78.1355 46.118 78.6625 47.4613 78.8382C48.9562 79.0472 50.4724 78.8382 51.9673 78.6353C60.4395 77.4965 69.2058 76.7029 77.4081 79.0926C82.1779 80.4798 87.5056 82.8725 91.7842 80.3556C92.7606 79.7801 93.5884 78.9836 94.5132 78.3385C96.4205 77.0149 98.7008 76.3546 100.933 75.7186C105.687 74.3829 111.006 72.5566 116.018 72.9382C119.827 73.2411 123.751 75.7852 127.283 77.1784C128.032 77.4783 128.799 77.8054 129.551 78.1719Z" fill="url(#paint19_linear)"/>
<path opacity="0.25" d="M128.172 83.5691C125.233 91.877 117.786 100.993 99.7621 103.841C67.5198 108.926 19.6522 106.112 3.94196 83.4843C12.4323 84.0083 21.226 80.8311 29.4404 83.2208C30.7413 83.6024 32.0088 84.1294 33.3521 84.3051C34.847 84.5141 36.3631 84.3051 37.858 84.1022C46.3302 82.9634 55.0966 82.1698 63.2989 84.5595C68.0687 85.9467 73.3964 88.3394 77.6749 85.8225C78.6513 85.247 79.4791 84.4505 80.404 83.8054C82.3113 82.4818 84.5916 81.8215 86.8233 81.1855C91.5779 79.8498 96.8966 78.0235 101.909 78.4051C105.717 78.708 109.641 81.2521 113.174 82.6453C113.617 82.818 121.628 83.2057 128.172 83.5691Z" fill="url(#paint20_linear)"/>
<path d="M127.635 66.9777C126.652 67.014 125.752 67.5137 124.906 68.0226C124.06 68.5314 123.205 69.0735 122.228 69.2068C120.357 69.4673 118.59 68.174 116.691 68.2134C114.917 68.2528 113.319 69.4612 111.536 69.4491C110.539 69.4491 109.572 69.0463 108.574 69.0796C107.319 69.119 106.106 69.8368 104.865 69.6157C104.447 69.543 104.053 69.3613 103.637 69.2704C101.766 68.8585 100.023 70.2517 98.1793 70.7424C96.6025 71.1573 94.9317 70.909 93.3003 70.9998C89.8314 71.1906 86.6445 72.9079 83.2544 73.6621C80.8134 74.2073 78.2966 74.2497 75.798 74.3102C75.4458 74.2812 75.0939 74.3696 74.7973 74.5616C74.3546 74.9251 74.4547 75.6792 74.858 76.076C75.2981 76.4512 75.8534 76.6649 76.4317 76.6817C79.3154 76.9846 82.1476 75.9609 84.9828 75.3521C86.3109 75.0644 87.6542 74.8675 88.9975 74.6737L93.3852 74.0376C98.3248 73.3289 103.334 72.6263 108.289 73.2078C110.048 73.4137 111.797 73.7802 113.568 73.762C116.509 73.7287 119.378 72.6293 122.319 72.7383C123.417 72.7807 124.509 72.9897 125.606 72.9776C126.704 72.9655 127.862 72.6747 128.639 71.9115C130.13 70.4213 130.561 66.8686 127.635 66.9777Z" fill="#68E1FD"/>
<path opacity="0.25" d="M128.645 71.8994C127.865 72.6747 126.707 72.9503 125.612 72.9655C124.518 72.9806 123.423 72.7686 122.325 72.7262C120.115 72.6444 117.944 73.2471 115.751 73.5621C115.031 73.673 114.303 73.7358 113.574 73.7499C111.803 73.7681 110.054 73.4016 108.295 73.1957C103.34 72.6141 98.3308 73.3168 93.3913 74.0255L89.0035 74.6616L88.8186 74.6888C87.539 74.8736 86.2624 75.0674 84.9979 75.34C82.1627 75.9458 79.3306 76.9725 76.4469 76.6696C76.0668 76.6417 75.694 76.5517 75.3431 76.4031C75.1696 76.3218 75.0108 76.2122 74.8731 76.079C74.4698 75.6792 74.3698 74.9251 74.8125 74.5646C75.109 74.3726 75.4609 74.2842 75.8131 74.3133C78.3117 74.2527 80.8285 74.2103 83.2695 73.6651C86.1593 73.023 88.9005 71.6813 91.7932 71.1815C92.2946 71.0916 92.8009 71.032 93.3094 71.0028C93.6126 70.9847 93.9158 70.9817 94.2191 70.9817C95.2759 71.0266 96.3345 71.0003 97.3878 70.9029C97.6597 70.8671 97.929 70.8145 98.1944 70.7454C100.05 70.2548 101.794 68.8615 103.652 69.2734C104.068 69.3643 104.462 69.546 104.881 69.6187C106.121 69.8398 107.334 69.122 108.589 69.0826C109.587 69.0493 110.554 69.4461 111.552 69.4521C111.905 69.4513 112.257 69.4106 112.601 69.331C113.362 69.1246 114.112 68.88 114.848 68.598C115.441 68.3776 116.065 68.2489 116.697 68.2164C118.586 68.177 120.363 69.4703 122.234 69.2098C123.211 69.0766 124.072 68.5344 124.912 68.0256C125.752 67.5168 126.652 67.017 127.641 66.9807C130.561 66.8686 130.13 70.4213 128.645 71.8994Z" fill="url(#paint21_linear)"/>
<path opacity="0.25" d="M115.794 73.5197L115.748 73.5621C115.028 73.673 114.3 73.7358 113.571 73.7499C111.8 73.7681 110.051 73.4016 108.292 73.1957C103.337 72.6142 98.3278 73.3168 93.3882 74.0255L89.0005 74.6616L88.8155 74.6888C86.0531 74.8585 83.2907 75.2522 80.5495 75.6459C79.0849 75.8579 77.6234 76.0669 76.1618 76.282L75.3401 76.4031C75.1665 76.3218 75.0077 76.2123 74.8701 76.079C74.4668 75.6792 74.3667 74.9251 74.8094 74.5647C75.106 74.3727 75.4579 74.2843 75.8101 74.3133C78.3087 74.2527 80.8255 74.2103 83.2665 73.6651C86.1562 73.023 88.8974 71.6813 91.7902 71.1816C91.873 71.2054 91.957 71.2246 92.0419 71.2391C92.7696 71.3693 93.4913 71.1755 94.216 70.9817C94.7152 70.8305 95.2299 70.736 95.7503 70.7C96.3011 70.7053 96.8494 70.7734 97.3848 70.9029C97.8203 71.0001 98.2639 71.0569 98.7099 71.0725C100.484 71.0725 102.085 69.861 103.865 69.8368C105.751 69.7944 107.531 71.0877 109.402 70.8302C110.375 70.697 111.221 70.1548 112.076 69.646C112.252 69.54 112.434 69.4309 112.616 69.3431C113.275 68.928 114.023 68.6767 114.799 68.6102H114.863C117.707 68.5375 117.27 72.0508 115.794 73.5197Z" fill="white"/>
<path d="M49.0229 53.4997L70.3368 52.682L70.64 54.2872L65.3851 54.5659L59.1295 54.6446H54.8843L49.8537 54.3024L49.0229 53.4997Z" fill="url(#paint22_linear)"/>
</g>
<defs>
<linearGradient id="paint0_linear" x1="114.866" y1="64.2942" x2="117.44" y2="64.2942" gradientUnits="userSpaceOnUse">
<stop stop-opacity="0"/>
<stop offset="0.91" stop-opacity="0.8"/>
<stop offset="1"/>
</linearGradient>
<linearGradient id="paint1_linear" x1="8668.28" y1="-2922.34" x2="6686.81" y2="-2027.13" gradientUnits="userSpaceOnUse">
<stop stop-opacity="0"/>
<stop offset="0.91" stop-opacity="0.8"/>
<stop offset="1"/>
</linearGradient>
<linearGradient id="paint2_linear" x1="7467.49" y1="-1758.42" x2="6967.91" y2="-1821.9" gradientUnits="userSpaceOnUse">
<stop stop-opacity="0"/>
<stop offset="0.91" stop-opacity="0.8"/>
<stop offset="1"/>
</linearGradient>
<linearGradient id="paint3_linear" x1="1900.35" y1="1457.41" x2="1890.16" y2="1376.4" gradientUnits="userSpaceOnUse">
<stop stop-opacity="0"/>
<stop offset="0.91" stop-opacity="0.8"/>
<stop offset="1"/>
</linearGradient>
<linearGradient id="paint4_linear" x1="46.7275" y1="45.313" x2="44.191" y2="50.0918" gradientUnits="userSpaceOnUse">
<stop stop-color="#ECC4D7"/>
<stop offset="0.42" stop-color="#EFD4D1"/>
<stop offset="1" stop-color="#F2EAC9"/>
</linearGradient>
<linearGradient id="paint5_linear" x1="7773.83" y1="-2484.76" x2="32719.1" y2="-2484.76" gradientUnits="userSpaceOnUse">
<stop stop-opacity="0"/>
<stop offset="0.91" stop-opacity="0.8"/>
<stop offset="1"/>
</linearGradient>
<linearGradient id="paint6_linear" x1="21562.8" y1="-1834.1" x2="21563.4" y2="-1382.24" gradientUnits="userSpaceOnUse">
<stop stop-opacity="0"/>
<stop offset="0.91" stop-opacity="0.8"/>
<stop offset="1"/>
</linearGradient>
<linearGradient id="paint7_linear" x1="1601.07" y1="1515.46" x2="1519.63" y2="1486" gradientUnits="userSpaceOnUse">
<stop stop-color="#ECC4D7"/>
<stop offset="0.42" stop-color="#EFD4D1"/>
<stop offset="1" stop-color="#F2EAC9"/>
</linearGradient>
<linearGradient id="paint8_linear" x1="2103.45" y1="-1609.62" x2="2614.92" y2="-1609.62" gradientUnits="userSpaceOnUse">
<stop stop-opacity="0"/>
<stop offset="0.91" stop-opacity="0.8"/>
<stop offset="1"/>
</linearGradient>
<linearGradient id="paint9_linear" x1="622.726" y1="-203.849" x2="621.061" y2="-193.696" gradientUnits="userSpaceOnUse">
<stop stop-opacity="0"/>
<stop offset="0.91" stop-opacity="0.8"/>
<stop offset="1"/>
</linearGradient>
<linearGradient id="paint10_linear" x1="543.265" y1="-151.431" x2="543.265" y2="-143.968" gradientUnits="userSpaceOnUse">
<stop stop-opacity="0"/>
<stop offset="0.91" stop-opacity="0.8"/>
<stop offset="1"/>
</linearGradient>
<linearGradient id="paint11_linear" x1="1305.62" y1="-2354.15" x2="1506.52" y2="-2198.55" gradientUnits="userSpaceOnUse">
<stop stop-opacity="0"/>
<stop offset="0.91" stop-opacity="0.8"/>
<stop offset="1"/>
</linearGradient>
<linearGradient id="paint12_linear" x1="3128.4" y1="-1873.82" x2="3409.68" y2="-1074.55" gradientUnits="userSpaceOnUse">
<stop stop-opacity="0"/>
<stop offset="0.91" stop-opacity="0.8"/>
<stop offset="1"/>
</linearGradient>
<linearGradient id="paint13_linear" x1="932.253" y1="958.368" x2="988.153" y2="975.256" gradientUnits="userSpaceOnUse">
<stop stop-color="#ECC4D7"/>
<stop offset="0.42" stop-color="#EFD4D1"/>
<stop offset="1" stop-color="#F2EAC9"/>
</linearGradient>
<linearGradient id="paint14_linear" x1="1889.92" y1="94.016" x2="2213.56" y2="94.016" gradientUnits="userSpaceOnUse">
<stop stop-opacity="0"/>
<stop offset="0.91" stop-opacity="0.8"/>
<stop offset="1"/>
</linearGradient>
<linearGradient id="paint15_linear" x1="2157.28" y1="-2117.99" x2="2528.53" y2="-2117.99" gradientUnits="userSpaceOnUse">
<stop stop-opacity="0"/>
<stop offset="0.91" stop-opacity="0.8"/>
<stop offset="1"/>
</linearGradient>
<linearGradient id="paint16_linear" x1="584.936" y1="8.7669" x2="603.717" y2="8.7669" gradientUnits="userSpaceOnUse">
<stop stop-opacity="0"/>
<stop offset="0.91" stop-opacity="0.8"/>
<stop offset="1"/>
</linearGradient>
<linearGradient id="paint17_linear" x1="18806.8" y1="-1305.55" x2="18792.9" y2="-757.168" gradientUnits="userSpaceOnUse">
<stop stop-opacity="0"/>
<stop offset="0.91" stop-opacity="0.8"/>
<stop offset="1"/>
</linearGradient>
<linearGradient id="paint18_linear" x1="196.896" y1="-175.929" x2="190.875" y2="-175.856" gradientUnits="userSpaceOnUse">
<stop stop-opacity="0"/>
<stop offset="0.91" stop-opacity="0.8"/>
<stop offset="1"/>
</linearGradient>
<linearGradient id="paint19_linear" x1="805.539" y1="-420.789" x2="54435.2" y2="-420.789" gradientUnits="userSpaceOnUse">
<stop stop-opacity="0"/>
<stop offset="0.91" stop-opacity="0.8"/>
<stop offset="1"/>
</linearGradient>
<linearGradient id="paint20_linear" x1="26860" y1="-2699.79" x2="26880.8" y2="2135.48" gradientUnits="userSpaceOnUse">
<stop stop-opacity="0"/>
<stop offset="0.91" stop-opacity="0.8"/>
<stop offset="1"/>
</linearGradient>
<linearGradient id="paint21_linear" x1="18547.9" y1="-767.325" x2="18557" y2="-531.788" gradientUnits="userSpaceOnUse">
<stop stop-opacity="0"/>
<stop offset="0.91" stop-opacity="0.8"/>
<stop offset="1"/>
</linearGradient>
<linearGradient id="paint22_linear" x1="4305.77" y1="-219.425" x2="4305.79" y2="-198.893" gradientUnits="userSpaceOnUse">
<stop stop-opacity="0"/>
<stop offset="0.91" stop-opacity="0.8"/>
<stop offset="1"/>
</linearGradient>
<clipPath id="clip0">
<rect width="130" height="106" fill="white"/>
</clipPath>
</defs>
</svg>
