<svg width="199" height="155" viewBox="0 0 199 155" fill="none" xmlns="http://www.w3.org/2000/svg">
<path d="M170.404 111.314H28.6162C28.5502 111.314 28.4869 111.287 28.4403 111.239C28.3936 111.191 28.3674 111.126 28.3674 111.058C28.3674 110.99 28.3936 110.925 28.4403 110.877C28.4869 110.829 28.5502 110.802 28.6162 110.802H170.404C170.47 110.802 170.533 110.829 170.58 110.877C170.626 110.925 170.652 110.99 170.652 111.058C170.652 111.126 170.626 111.191 170.58 111.239C170.533 111.287 170.47 111.314 170.404 111.314Z" fill="#D1D3D4"/>
<path d="M75.6001 95.0903H47.1232V114.435H75.6001V95.0903Z" fill="#FAF7F7"/>
<path d="M75.62 114.691H47.1232C47.0572 114.691 46.994 114.664 46.9473 114.616C46.9007 114.568 46.8745 114.503 46.8745 114.435V95.0904C46.8745 95.0225 46.9007 94.9574 46.9473 94.9094C46.994 94.8614 47.0572 94.8345 47.1232 94.8345H75.62C75.686 94.8345 75.7492 94.8614 75.7959 94.9094C75.8425 94.9574 75.8688 95.0225 75.8688 95.0904V114.435C75.8688 114.503 75.8425 114.568 75.7959 114.616C75.7492 114.664 75.686 114.691 75.62 114.691ZM47.3919 114.179H75.3713V95.3462H47.372L47.3919 114.179Z" fill="#231F20"/>
<path d="M113.738 78.5244H85.2615V114.43H113.738V78.5244Z" fill="#FAF7F7"/>
<path d="M113.738 114.691H85.2616C85.1956 114.691 85.1323 114.664 85.0857 114.616C85.039 114.568 85.0128 114.503 85.0128 114.435V78.5298C85.0128 78.4619 85.039 78.3969 85.0857 78.3489C85.1323 78.3009 85.1956 78.2739 85.2616 78.2739H113.738C113.804 78.2739 113.868 78.3009 113.914 78.3489C113.961 78.3969 113.987 78.4619 113.987 78.5298V114.435C113.987 114.503 113.961 114.568 113.914 114.616C113.868 114.664 113.804 114.691 113.738 114.691ZM85.5103 114.179H113.49V78.7857H85.5103V114.179Z" fill="#D1D3D4"/>
<path d="M151.877 65.7666H123.4V114.435H151.877V65.7666Z" fill="#FAF7F7"/>
<path d="M151.877 114.691H123.38C123.314 114.691 123.251 114.664 123.204 114.616C123.157 114.568 123.131 114.503 123.131 114.435V65.7661C123.132 65.6987 123.159 65.6344 123.205 65.5867C123.252 65.5389 123.314 65.5116 123.38 65.5103H151.857C151.923 65.5103 151.986 65.5372 152.033 65.5852C152.079 65.6332 152.106 65.6983 152.106 65.7661V114.435C152.106 114.499 152.082 114.562 152.04 114.609C151.998 114.656 151.939 114.686 151.877 114.691ZM123.649 114.179H151.628V66.022H123.649V114.179Z" fill="#D1D3D4"/>
<path d="M164.245 99.2206C164.276 98.7396 164.176 98.2593 163.956 97.8337C163.777 97.5215 163.498 97.2758 163.349 96.9534C163.095 96.3854 163.275 95.7201 163.215 95.1008C163.16 94.5821 162.938 94.0973 162.583 93.7242C162.265 93.3967 161.857 93.1715 161.558 92.8286C161.061 92.2657 160.921 91.4775 160.643 90.7815C160.24 89.7897 159.544 88.9535 158.653 88.3916C159.19 89.5072 157.966 90.9248 158.518 92.0303C158.698 92.3783 159.016 92.6341 159.16 93.0077C159.474 93.9033 158.434 94.8757 158.767 95.7661C158.931 96.2063 159.394 96.4621 159.613 96.8869C159.901 97.455 159.673 98.1407 159.697 98.7855C159.791 99.6728 160.211 100.49 160.872 101.068C161.26 101.452 161.692 101.784 162.11 102.127C162.608 102.537 162.822 102.972 163.26 102.312C163.871 101.4 164.213 100.327 164.245 99.2206Z" fill="#231F20"/>
<path d="M164.802 99.7271C164.592 99.0618 164.592 98.3454 164.802 97.6801C165.11 96.9482 165.871 96.4314 165.961 95.633C166.021 95.1212 165.767 94.6095 165.866 94.0977C166.035 93.6171 166.325 93.1913 166.707 92.8644C167.478 91.9931 167.936 90.8773 168.006 89.7017C168.521 90.3323 168.937 91.042 169.24 91.805C169.388 92.1886 169.449 92.6021 169.418 93.0137C169.387 93.4253 169.265 93.8242 169.06 94.1796C168.933 94.3341 168.827 94.5064 168.747 94.6914C168.598 95.2031 169.016 95.6637 169.245 96.1397C169.373 96.4128 169.426 96.7168 169.399 97.0189C169.372 97.321 169.265 97.6097 169.09 97.8541C168.652 98.417 167.802 98.6371 167.598 99.328C167.543 99.5832 167.518 99.8444 167.523 100.106C167.477 100.56 167.3 100.989 167.015 101.339C166.729 101.688 166.348 101.941 165.921 102.066C165.424 102.199 165.424 101.984 165.319 101.554C165.17 100.914 164.941 100.331 164.802 99.7271Z" fill="#231F20"/>
<path d="M163.145 94.8088C162.777 93.4936 162.648 92.1221 162.24 90.812C161.911 89.7891 161.506 88.7934 161.031 87.8335L162.618 88.5193C163.152 88.6807 163.612 89.0327 163.916 89.5121C164.329 90.4026 163.583 91.5591 164.021 92.4189C164.21 92.7057 164.419 92.9776 164.648 93.2326C164.849 93.5917 164.967 93.9942 164.991 94.4081C165.015 94.822 164.945 95.2361 164.787 95.6174C164.677 95.9552 164.195 97.6952 163.767 97.2141C163.598 97.0197 163.583 96.2981 163.508 96.032C163.399 95.6226 163.26 95.2183 163.145 94.8088Z" fill="#231F20"/>
<path d="M163.901 112.286C163.588 110.136 162.598 102.562 162.588 102.491L163.085 102.419C163.085 102.496 164.08 110.065 164.399 112.209L163.901 112.286Z" fill="#231F20"/>
<path d="M164.498 114.297H164.001C164.001 111.738 165.07 101.933 165.677 101.252L166.046 101.59C165.618 102.183 164.518 111.206 164.498 114.297Z" fill="#231F20"/>
<path d="M165.036 113.816H164.538C164.772 108.325 163.638 96.7846 163.628 96.6669L164.125 96.6157C164.135 96.713 165.27 108.289 165.036 113.816Z" fill="#231F20"/>
<path d="M161.299 106.114H167.2L166.787 113.007C166.781 113.555 166.571 114.079 166.201 114.472C165.831 114.865 165.328 115.097 164.797 115.121H163.677C163.15 115.092 162.653 114.858 162.288 114.465C161.922 114.072 161.717 113.551 161.712 113.007L161.299 106.114Z" fill="#FAF7F7"/>
<path d="M164.817 115.387H163.677C163.085 115.356 162.525 115.095 162.112 114.656C161.7 114.217 161.464 113.633 161.454 113.023L161.041 106.129C161.038 106.093 161.043 106.058 161.055 106.024C161.067 105.991 161.086 105.96 161.11 105.935C161.134 105.907 161.163 105.885 161.196 105.87C161.228 105.855 161.264 105.847 161.299 105.848H167.2C167.235 105.848 167.269 105.856 167.301 105.871C167.333 105.886 167.361 105.908 167.384 105.935C167.408 105.96 167.427 105.991 167.439 106.024C167.451 106.058 167.456 106.093 167.454 106.129L167.041 113.023C167.03 113.633 166.795 114.217 166.382 114.656C165.969 115.095 165.41 115.356 164.817 115.387ZM161.573 106.38L161.966 112.987C161.969 113.464 162.147 113.922 162.464 114.269C162.782 114.617 163.215 114.828 163.677 114.86H164.817C165.279 114.828 165.713 114.617 166.03 114.269C166.348 113.922 166.525 113.464 166.528 112.987L166.926 106.38H161.573Z" fill="#231F20"/>
<path d="M49.3669 77.0253C49.3669 77.0253 64.7496 75.3109 66.1724 78.2382C67.3515 80.6639 66.9038 90.2083 66.9038 90.2083L61.9288 91.0118C61.9288 91.0118 61.1825 82.8236 60.481 82.235C59.7796 81.6465 44.8446 83.7089 44.8446 83.7089L38.4716 112.455L31.84 111.431L35.7702 78.0437L49.3669 77.0253Z" fill="#231F20"/>
<path d="M38.4717 112.711H38.4369L31.8102 111.687C31.7458 111.677 31.6879 111.641 31.6488 111.588C31.6097 111.534 31.5927 111.467 31.6012 111.401L35.5265 78.013C35.5334 77.9545 35.5602 77.9004 35.602 77.8601C35.6439 77.8199 35.6981 77.7961 35.7553 77.7929L49.347 76.7694C50.9589 76.5903 64.9387 75.1317 66.3964 78.1256C67.5854 80.5769 67.1675 89.8245 67.1526 90.2186C67.1499 90.2773 67.1276 90.3332 67.0896 90.377C67.0515 90.4208 67 90.4498 66.9436 90.4591L61.9686 91.2677C61.9015 91.2767 61.8337 91.2584 61.7796 91.2165C61.7525 91.1951 61.7301 91.1681 61.7138 91.1373C61.6975 91.1064 61.6877 91.0724 61.685 91.0374C61.3268 87.0968 60.7249 82.798 60.3318 82.4346C59.6503 82.1122 50.6704 83.1767 45.0536 83.9392L38.7155 112.511C38.7022 112.567 38.671 112.618 38.6269 112.654C38.5827 112.69 38.5281 112.71 38.4717 112.711ZM32.1186 111.201L38.3075 112.168L44.6108 83.6526C44.6218 83.602 44.6478 83.556 44.6852 83.5212C44.7227 83.4864 44.7697 83.4643 44.8198 83.4582C48.3421 82.9771 59.904 81.452 60.6353 82.0355C61.3666 82.6189 61.9487 88.5042 62.1278 90.7355L66.665 89.9883C66.7197 88.5861 66.9934 80.495 65.9536 78.3507C64.8491 76.0836 53.6255 76.8155 49.3968 77.2812L35.9941 78.2689L32.1186 111.201Z" fill="#231F20"/>
<path d="M61.9089 91.0115V94.9111H72.6002C70.9645 93.0332 69.0401 91.4444 66.9038 90.208L61.9089 91.0115Z" fill="#FAF7F7"/>
<path d="M72.6002 95.1671H61.9089C61.8429 95.1671 61.7797 95.1401 61.733 95.0921C61.6864 95.0442 61.6602 94.9791 61.6602 94.9112V91.0116C61.6596 90.9508 61.6804 90.8919 61.7188 90.8458C61.7573 90.7997 61.8107 90.7695 61.8691 90.7608L66.8441 89.9522C66.8969 89.9449 66.9505 89.9538 66.9983 89.9778C69.1638 91.2262 71.1124 92.8363 72.7644 94.7423C72.7958 94.7791 72.8163 94.8244 72.8234 94.8728C72.8306 94.9212 72.8241 94.9707 72.8047 95.0154C72.7853 95.0601 72.7539 95.0982 72.7141 95.1251C72.6743 95.152 72.6279 95.1666 72.5803 95.1671H72.6002ZM62.1527 94.6553H72.0281C70.5217 92.9995 68.7786 91.5895 66.859 90.4742L62.1527 91.2316V94.6553Z" fill="#231F20"/>
<path d="M31.84 111.431L31.4918 115.208C31.4918 115.208 44.0885 116.881 43.989 115.781C43.8895 114.681 38.4717 112.455 38.4717 112.455L31.84 111.431Z" fill="#FAF7F7"/>
<path d="M41.9791 116.385C38.7403 116.385 32.9246 115.638 31.4669 115.448C31.4027 115.438 31.3446 115.404 31.3041 115.352C31.2635 115.299 31.2435 115.234 31.248 115.167L31.5962 111.395C31.5986 111.36 31.6083 111.326 31.6246 111.295C31.6409 111.264 31.6635 111.237 31.6908 111.216C31.717 111.194 31.7474 111.179 31.78 111.17C31.8126 111.161 31.8466 111.159 31.8798 111.165L38.5115 112.188H38.5662C39.8697 112.726 44.1332 114.553 44.2427 115.72C44.2466 115.78 44.2374 115.841 44.2159 115.898C44.1944 115.954 44.1611 116.005 44.1183 116.047C43.8895 116.298 43.0835 116.385 41.9791 116.385ZM31.7704 114.972C37.1981 115.684 43.0089 116.15 43.7104 115.73C43.4915 115.116 40.8348 113.683 38.3871 112.7L32.049 111.713L31.7704 114.972Z" fill="#231F20"/>
<path d="M28.3078 67.2251C28.3078 67.2251 23.7706 73.617 24.079 74.5843C24.5765 76.1963 34.4768 85.6026 34.4768 85.6026C34.4768 85.6026 37.0936 86.58 37.3324 85.2495C37.5712 83.9189 35.0091 81.447 35.0091 81.447L35.1633 79.6456C35.1633 79.6456 33.5614 80.4286 33.2579 80.3519C32.9544 80.2751 29.0192 74.2619 29.0192 74.2619L32.6509 69.2977" fill="#FAF7F7"/>
<path d="M36.1931 86.2114C35.5785 86.1837 34.9714 86.0613 34.3922 85.8481C34.3612 85.8342 34.3326 85.8152 34.3076 85.7918C33.3126 84.8245 24.3576 76.2985 23.8601 74.666C23.5318 73.6425 27.0391 68.5965 28.1187 67.0765C28.1375 67.0487 28.1616 67.0251 28.1895 67.0071C28.2174 66.9891 28.2486 66.9771 28.2811 66.9718C28.3137 66.9665 28.3469 66.9681 28.3789 66.9764C28.4108 66.9848 28.4408 66.9997 28.467 67.0202C28.4935 67.04 28.5159 67.065 28.533 67.0937C28.5501 67.1225 28.5616 67.1544 28.5667 67.1877C28.5717 67.221 28.5704 67.2549 28.5627 67.2877C28.5549 67.3204 28.541 67.3513 28.5217 67.3785C26.3874 70.3877 24.1735 73.97 24.3327 74.5074C24.7258 75.7714 31.84 82.7724 34.6111 85.3824C35.1086 85.5564 36.3076 85.8941 36.8449 85.5666C36.9078 85.5286 36.9618 85.4768 37.003 85.4148C37.0443 85.3529 37.0718 85.2824 37.0837 85.2084C37.2578 84.2309 35.5265 82.3015 34.8399 81.626C34.8123 81.6006 34.7911 81.5688 34.7781 81.5331C34.7651 81.4975 34.7607 81.4591 34.7653 81.4213L34.8797 80.06C34.1982 80.3722 33.4668 80.6639 33.1982 80.5718C33.0887 80.5718 32.8002 80.4694 28.8102 74.3794C28.7802 74.3361 28.7641 74.2842 28.7641 74.231C28.7641 74.1778 28.7802 74.1259 28.8102 74.0826L32.442 69.1185C32.4616 69.0916 32.4861 69.0689 32.5142 69.0518C32.5423 69.0347 32.5735 69.0235 32.6058 69.0187C32.6381 69.0139 32.6711 69.0158 32.7027 69.0241C32.7344 69.0325 32.7641 69.0471 32.7902 69.0673C32.8164 69.0875 32.8384 69.1127 32.855 69.1416C32.8717 69.1706 32.8826 69.2026 32.8872 69.2358C32.8918 69.2691 32.8901 69.303 32.8819 69.3355C32.8738 69.3681 32.8596 69.3987 32.84 69.4255L29.3127 74.2464C30.7157 76.3855 32.9295 79.6711 33.3375 80.0754C33.9281 79.9039 34.5012 79.6743 35.0489 79.3896C35.0863 79.3661 35.1294 79.3537 35.1733 79.3537C35.2171 79.3537 35.2602 79.3661 35.2976 79.3896C35.3323 79.416 35.3601 79.4509 35.3783 79.4911C35.3966 79.5313 35.4047 79.5756 35.4021 79.6199L35.2578 81.2985C35.7553 81.8103 37.8001 83.9238 37.5662 85.2493C37.5397 85.3984 37.4813 85.5395 37.3952 85.6625C37.3092 85.7855 37.1977 85.8874 37.0687 85.9607C36.8015 86.1174 36.5007 86.2036 36.1931 86.2114Z" fill="#231F20"/>
<path d="M56.2922 58.7195L60.1528 60.7666L61.0682 50.8178C61.0682 50.8178 60.0234 49.7943 60.0035 49.0471C59.9438 47.2662 61.0682 47.4811 61.0682 47.4811C61.0682 47.4811 61.0682 44.0881 61.4761 43.9704C62.3119 43.735 62.3467 45.6439 62.3119 47.604C62.3119 47.604 64.3019 47.2099 64.2124 48.1464C64.1228 49.083 63.1278 50.5313 63.1278 50.5313C63.1278 50.5313 64.6502 66.442 62.7049 66.0531C60.7597 65.6641 54.327 62.8392 54.327 62.8392" fill="#FAF7F7"/>
<path d="M62.7745 66.3141H62.6601C60.7149 65.9201 54.4912 63.1975 54.2026 63.0849C54.1725 63.0715 54.1452 63.0522 54.1224 63.0279C54.0996 63.0037 54.0816 62.9751 54.0696 62.9437C54.0576 62.9123 54.0517 62.8788 54.0524 62.845C54.053 62.8113 54.0601 62.778 54.0733 62.7471C54.0995 62.6858 54.1481 62.6375 54.2085 62.6127C54.269 62.5878 54.3365 62.5883 54.3966 62.6141C54.4613 62.6141 60.8343 65.4288 62.7298 65.8126C62.7479 65.8162 62.7667 65.8148 62.7842 65.8085C62.8017 65.8022 62.8173 65.7913 62.8293 65.7768C63.8243 64.8505 63.3666 55.956 62.8293 50.5671C62.8241 50.5055 62.8399 50.444 62.874 50.3931C62.874 50.3931 63.869 48.9909 63.9138 48.1311C63.9204 48.0977 63.9184 48.0631 63.9079 48.0308C63.8974 47.9985 63.8789 47.9695 63.8541 47.9469C63.6103 47.7217 62.8044 47.7626 62.3069 47.8599C62.2702 47.8673 62.2323 47.866 62.1962 47.8563C62.16 47.8465 62.1264 47.8285 62.0979 47.8036C62.0702 47.779 62.0481 47.7483 62.0335 47.7137C62.0188 47.6792 62.012 47.6417 62.0134 47.604C62.0134 46.6982 62.0681 44.5795 61.6452 44.2417C61.6293 44.2286 61.6109 44.219 61.5912 44.2137C61.5715 44.2084 61.5509 44.2075 61.5308 44.211C61.3567 44.5129 61.2572 46.1199 61.2671 47.4863C61.2679 47.524 61.2604 47.5614 61.2451 47.5957C61.2299 47.6301 61.2073 47.6604 61.1791 47.6845C61.1509 47.7086 61.1178 47.7258 61.0822 47.7349C61.0466 47.744 61.0095 47.7448 60.9736 47.7371C60.8907 47.7275 60.8067 47.7357 60.7271 47.7613C60.6474 47.7868 60.5738 47.8291 60.5109 47.8855C60.3818 48.0452 60.2874 48.2315 60.2342 48.4319C60.181 48.6323 60.1702 48.8421 60.2025 49.0472C60.2025 49.5589 60.9238 50.3726 61.1975 50.6388C61.2237 50.6663 61.2439 50.6992 61.2567 50.7354C61.2696 50.7716 61.2748 50.8102 61.2721 50.8486L60.4015 60.7666C60.397 60.8081 60.3829 60.8479 60.3604 60.8826C60.3379 60.9173 60.3076 60.946 60.2721 60.9662C60.2363 60.9863 60.1961 60.9969 60.1552 60.9969C60.1143 60.9969 60.0741 60.9863 60.0383 60.9662L56.1827 58.9191C56.1532 58.9045 56.1269 58.8838 56.1053 58.8585C56.0837 58.8331 56.0674 58.8036 56.0572 58.7716C56.0469 58.7396 56.0431 58.7058 56.0458 58.6722C56.0486 58.6387 56.0579 58.606 56.0732 58.5762C56.0875 58.5459 56.1075 58.5189 56.1321 58.4967C56.1568 58.4745 56.1855 58.4576 56.2166 58.4471C56.2477 58.4366 56.2806 58.4327 56.3132 58.4355C56.3458 58.4383 56.3776 58.4479 56.4065 58.4637L59.9388 60.3265L60.8094 50.8742C60.5358 50.5876 59.7746 49.7227 59.7547 49.0165C59.7164 48.7329 59.7414 48.4442 59.8275 48.172C59.9137 47.8998 60.0589 47.6513 60.2522 47.4454C60.4157 47.3023 60.6163 47.2115 60.8293 47.1844C60.8293 43.8476 61.2572 43.7248 61.4213 43.6788C61.5216 43.6476 61.6276 43.6416 61.7306 43.6612C61.8336 43.6807 61.9306 43.7254 62.0134 43.7914C62.5109 44.1854 62.6004 45.3625 62.5755 47.2611C63.0283 47.2048 63.8541 47.1588 64.2422 47.5221C64.3255 47.5969 64.3898 47.6914 64.4297 47.7975C64.4696 47.9036 64.4837 48.0181 64.471 48.1311C64.3964 49.0062 63.6103 50.2396 63.3914 50.5671C63.5656 52.4044 64.67 64.7277 63.1974 66.1094C63.0883 66.2325 62.9363 66.3061 62.7745 66.3141Z" fill="#231F20"/>
<path d="M35.3225 57.6958C31.1584 60.485 26.9396 67.9926 26.9396 67.9926L32.9096 71.3497L36.5364 66.3958L35.3225 78.6782L52.531 76.7386L50.4067 62.0612L55.1827 63.9138L57.0583 58.2844C57.0583 58.2844 52.745 55.8279 48.7799 55.8279C44.8148 55.8279 39.4816 54.9118 35.3225 57.6958Z" fill="#68E1FD"/>
<path d="M47.7251 45.1936C48.0052 44.4207 47.9927 43.5677 47.6903 42.8037C47.3536 42.0742 46.7568 41.5061 46.0237 41.2172C45.2961 40.934 44.5131 40.8339 43.7402 40.9255C42.4752 41.0311 41.2817 41.5719 40.3522 42.4608C39.8996 42.9013 39.5513 43.4426 39.3339 44.0433C39.1166 44.6439 39.0361 45.2878 39.0985 45.9255C38.8249 45.8763 38.5436 45.9009 38.2821 45.9969C38.0205 46.0928 37.7876 46.2569 37.606 46.4731C36.5115 47.6092 36.611 49.5436 37.3224 50.9459C37.5462 51.4187 37.867 51.836 38.2627 52.169C38.6408 52.4536 39.0679 52.662 39.5214 52.7831C41.5561 53.3768 43.9989 52.7319 45.1332 50.8845C45.7351 49.8865 45.571 48.6122 46.1282 47.6655C46.6854 46.7187 47.3868 46.2223 47.7251 45.1936Z" fill="#FAF7F7"/>
<path d="M41.0487 53.2589C40.5108 53.2596 39.9753 53.1856 39.4567 53.0388C38.9725 52.9104 38.5166 52.6881 38.1135 52.3837C37.6951 52.0247 37.3559 51.5781 37.1185 51.0736C36.407 49.6816 36.2031 47.5936 37.4468 46.2989C37.8031 45.9122 38.2882 45.6783 38.805 45.6438C38.7891 45.0129 38.9018 44.3855 39.1357 43.8021C39.3696 43.2186 39.7196 42.6919 40.1632 42.2559C41.1328 41.3291 42.3804 40.7696 43.7004 40.6694C44.5141 40.5743 45.3381 40.6813 46.1033 40.9816C46.8945 41.2954 47.5389 41.9088 47.9043 42.696C48.2287 43.5134 48.2447 44.426 47.949 45.2549C47.7179 45.8559 47.3805 46.4076 46.954 46.8823C46.714 47.1661 46.4961 47.469 46.3023 47.7881C46.0794 48.2436 45.9346 48.7353 45.8745 49.2415C45.8127 49.8719 45.6319 50.4838 45.3421 51.0429C44.8665 51.7551 44.2234 52.3318 43.4726 52.7192C42.7219 53.1067 41.888 53.2923 41.0487 53.2589ZM38.805 46.1556C38.4125 46.1859 38.0461 46.3689 37.7801 46.6673C36.7155 47.7779 36.9095 49.61 37.5413 50.8382C37.7496 51.2807 38.0482 51.6718 38.4169 51.9846C38.7701 52.247 39.1685 52.4381 39.591 52.5475C41.6507 53.1514 43.9442 52.3837 44.9193 50.7614C45.1816 50.2699 45.3505 49.7315 45.4168 49.175C45.4894 48.6085 45.6578 48.0595 45.9143 47.5527C46.1205 47.211 46.3517 46.8859 46.6058 46.5803C46.9919 46.1524 47.2972 45.6543 47.5063 45.1116C47.7706 44.4032 47.7706 43.6193 47.5063 42.911C47.192 42.2443 46.6421 41.7263 45.969 41.4627C45.2724 41.1873 44.5211 41.0907 43.78 41.1812C42.5751 41.2711 41.4353 41.778 40.5462 42.6193C40.1092 43.0358 39.7727 43.5516 39.5637 44.1256C39.3547 44.6996 39.2788 45.3158 39.3423 45.9253C39.3488 45.9667 39.3449 46.0091 39.331 46.0485C39.3171 46.0879 39.2935 46.123 39.2627 46.1504C39.2323 46.1789 39.1953 46.199 39.1553 46.2089C39.1153 46.2187 39.0735 46.218 39.0338 46.2067C38.9601 46.1794 38.8831 46.1622 38.805 46.1556Z" fill="#231F20"/>
<path d="M45.1332 54.4818L45.7053 57.3784C45.7053 57.3784 45.6058 58.7806 43.6307 58.7243C41.6556 58.668 41.0984 57.3988 41.0984 57.3988L40.2179 51.9537C40.2179 51.9537 41.2129 50.8738 40.1731 47.8596C42.1359 47.9982 44.1066 47.7587 45.9839 47.1533C46.3568 48.8233 46.6408 50.5129 46.8346 52.2147C46.9192 53.7602 45.1332 54.4818 45.1332 54.4818Z" fill="#FAF7F7"/>
<path d="M43.7402 58.9855H43.6208C41.5164 58.9292 40.8995 57.5679 40.8746 57.5116C40.8725 57.4912 40.8725 57.4706 40.8746 57.4502L39.9891 51.9999C39.9842 51.961 39.988 51.9215 40 51.8843C40.0121 51.847 40.0321 51.8131 40.0587 51.785C40.0587 51.785 40.9343 50.7614 39.9592 47.9416C39.9447 47.9018 39.9403 47.8588 39.9464 47.8167C39.9525 47.7746 39.9689 47.7348 39.994 47.7011C40.0197 47.6671 40.0531 47.64 40.0912 47.6222C40.1294 47.6043 40.1711 47.5963 40.2129 47.5987C42.1395 47.7345 44.074 47.5038 45.9193 46.9181C45.9516 46.9041 45.9862 46.897 46.0212 46.897C46.0563 46.897 46.0909 46.9041 46.1232 46.9181C46.1528 46.9357 46.1787 46.9593 46.1992 46.9874C46.2197 47.0156 46.2345 47.0477 46.2426 47.0818C46.6243 48.7694 46.9117 50.4781 47.1033 52.1995C47.1779 53.6068 45.9292 54.3796 45.4367 54.6304L45.969 57.3274C45.974 57.351 45.974 57.3754 45.969 57.399C45.969 57.399 45.8148 58.9855 43.7402 58.9855ZM41.3373 57.3223C41.4268 57.4911 41.984 58.4226 43.6357 58.4686C45.2874 58.5147 45.4267 57.5781 45.4566 57.3888L44.8894 54.5331C44.8779 54.4743 44.8864 54.4131 44.9136 54.36C44.9408 54.3068 44.985 54.265 45.0387 54.2414C45.0387 54.2414 46.6605 53.571 46.5859 52.2302C46.4102 50.6367 46.1477 49.0546 45.7999 47.4913C44.0888 48.0045 42.3065 48.2207 40.5264 48.131C41.2726 50.526 40.7104 51.6826 40.4816 52.0204L41.3373 57.3223Z" fill="#231F20"/>
<path d="M40.6159 51.6058C40.4676 51.3304 40.2406 51.1086 39.9656 50.9703C39.6906 50.8321 39.381 50.7842 39.0787 50.8331C38.9324 50.8547 38.7935 50.9126 38.6739 51.0017C38.5543 51.0909 38.4576 51.2086 38.3921 51.3448C38.3291 51.5771 38.3224 51.8218 38.3727 52.0573C38.423 52.2929 38.5288 52.5122 38.6807 52.6959C38.9107 53.0359 39.2624 53.2683 39.6587 53.3422C40.055 53.416 40.4636 53.3253 40.795 53.0899" fill="#FAF7F7"/>
<path d="M39.9194 53.6018C39.8234 53.6096 39.7269 53.6096 39.6308 53.6018C39.1654 53.5191 38.7505 53.2505 38.4766 52.8546C38.3013 52.6332 38.181 52.3711 38.1264 52.0911C38.0718 51.8111 38.0844 51.5216 38.1632 51.2477C38.2471 51.0735 38.3704 50.9227 38.5228 50.8078C38.6751 50.6929 38.8521 50.6173 39.0388 50.5875C39.3937 50.5297 39.7573 50.5861 40.0797 50.7492C40.4021 50.9123 40.6676 51.174 40.8398 51.4985C40.8541 51.5287 40.8626 51.5616 40.8646 51.5952C40.8666 51.6288 40.8622 51.6624 40.8516 51.6943C40.841 51.7261 40.8243 51.7555 40.8027 51.7807C40.781 51.806 40.7547 51.8265 40.7253 51.8413C40.6959 51.8561 40.664 51.8648 40.6313 51.8669C40.5987 51.869 40.5659 51.8644 40.535 51.8535C40.504 51.8426 40.4755 51.8255 40.4509 51.8032C40.4264 51.7809 40.4064 51.7539 40.392 51.7236C40.2684 51.4976 40.0808 51.3158 39.8541 51.2024C39.6274 51.089 39.3725 51.0495 39.1234 51.089C39.018 51.1054 38.9179 51.1474 38.8314 51.2115C38.7449 51.2755 38.6744 51.3599 38.6259 51.4575C38.5829 51.649 38.5839 51.8481 38.6288 52.0391C38.6737 52.2301 38.7613 52.4077 38.8846 52.5578C39.087 52.8322 39.3847 53.0156 39.7154 53.0696C40.0524 53.124 40.3968 53.0414 40.6756 52.8393C40.7286 52.8007 40.7942 52.785 40.8584 52.7955C40.9225 52.806 40.9801 52.8419 41.0189 52.8956C41.0389 52.9225 41.0534 52.9533 41.0614 52.9862C41.0695 53.019 41.0711 53.0532 41.066 53.0867C41.0609 53.1202 41.0492 53.1523 41.0317 53.181C41.0142 53.2097 40.9912 53.2345 40.9641 53.2538C40.6601 53.4798 40.2945 53.6015 39.9194 53.6018Z" fill="#231F20"/>
<path d="M43.8248 51.867C43.7921 51.8663 43.7599 51.859 43.73 51.8455C43.7 51.8321 43.673 51.8126 43.6503 51.7884C43.6277 51.7642 43.6099 51.7356 43.598 51.7043C43.5861 51.673 43.5803 51.6396 43.581 51.606C43.581 51.5726 43.5875 51.5396 43.6 51.5088C43.6126 51.478 43.631 51.4502 43.6541 51.4268C43.6773 51.4035 43.7048 51.3851 43.7349 51.3728C43.7651 51.3605 43.7973 51.3545 43.8297 51.3552C44.0436 51.3628 44.2553 51.3097 44.4417 51.2017C44.1427 50.717 43.7717 50.2836 43.3422 49.9171C43.3189 49.8933 43.3004 49.865 43.2877 49.8339C43.2751 49.8027 43.2686 49.7692 43.2686 49.7355C43.2686 49.7017 43.2751 49.6682 43.2877 49.637C43.3004 49.6059 43.3189 49.5776 43.3422 49.5538C43.3649 49.5299 43.392 49.511 43.4219 49.4981C43.4518 49.4852 43.4839 49.4785 43.5163 49.4785C43.5488 49.4785 43.5809 49.4852 43.6108 49.4981C43.6407 49.511 43.6677 49.5299 43.6904 49.5538C45.1829 50.9355 44.979 51.3091 44.9143 51.432C44.6755 51.8414 43.9889 51.867 43.8248 51.867Z" fill="#231F20"/>
<path d="M45.1332 54.4819C45.1332 54.4819 43.6407 54.7532 42.9044 54.4819C43.1729 54.9535 43.5414 55.3568 43.9825 55.6616C44.4235 55.9664 44.9257 56.1649 45.4516 56.2424L45.1332 54.4819Z" fill="#231F20"/>
<path d="M45.4516 56.483C44.8848 56.4047 44.3429 56.1937 43.8677 55.8664C43.3925 55.539 42.9966 55.1039 42.7104 54.5945C42.6857 54.5486 42.6753 54.496 42.6806 54.4438C42.686 54.3917 42.7068 54.3424 42.7402 54.3028C42.773 54.2632 42.8169 54.2349 42.8659 54.2221C42.9149 54.2093 42.9666 54.2124 43.0138 54.2312C43.705 54.3751 44.4172 54.3751 45.1083 54.2312C45.1729 54.2192 45.2395 54.234 45.2936 54.2724C45.3477 54.3107 45.3848 54.3695 45.3969 54.4359L45.7153 56.181C45.7222 56.2199 45.7204 56.26 45.7101 56.2981C45.6997 56.3362 45.6811 56.3714 45.6556 56.4011C45.6301 56.4301 45.5984 56.4527 45.563 56.4669C45.5276 56.4811 45.4894 56.4866 45.4516 56.483ZM43.4616 54.8402C43.8907 55.3775 44.477 55.7581 45.1332 55.9251L44.9242 54.7685C44.4437 54.8434 43.9569 54.8674 43.4715 54.8402H43.4616Z" fill="#231F20"/>
<path d="M42.1695 49.4478C42.2928 49.4397 42.3824 49.2639 42.3694 49.0552C42.3565 48.8464 42.246 48.6838 42.1226 48.6919C41.9992 48.7 41.9097 48.8758 41.9226 49.0845C41.9356 49.2932 42.0461 49.4559 42.1695 49.4478Z" fill="#231F20"/>
<path d="M44.625 49.2564C44.7484 49.2483 44.8379 49.0725 44.825 48.8638C44.812 48.655 44.7015 48.4924 44.5781 48.5005C44.4547 48.5086 44.3652 48.6843 44.3781 48.8931C44.3911 49.1018 44.5016 49.2644 44.625 49.2564Z" fill="#231F20"/>
<path d="M42.1432 52.2969C42.1432 52.2969 43.3521 53.7452 45.1282 52.2969H42.1432Z" fill="#FAF7F7"/>
<path d="M43.5661 53.1976C42.9557 53.1831 42.376 52.9198 41.9542 52.4658C41.9083 52.4171 41.8826 52.3519 41.8826 52.2841C41.8826 52.2163 41.9083 52.1511 41.9542 52.1024C41.9785 52.0802 42.0069 52.0632 42.0377 52.0524C42.0685 52.0416 42.1011 52.0373 42.1336 52.0397C42.166 52.0421 42.1977 52.0511 42.2267 52.0663C42.2557 52.0815 42.2814 52.1025 42.3024 52.128C42.3472 52.1792 43.392 53.3665 44.9243 52.0973C44.9497 52.0762 44.979 52.0604 45.0104 52.0508C45.0419 52.0413 45.0748 52.0382 45.1074 52.0418C45.1399 52.0454 45.1715 52.0555 45.2003 52.0716C45.229 52.0877 45.2544 52.1095 45.275 52.1357C45.2956 52.1619 45.3109 52.192 45.3202 52.2244C45.3295 52.2567 45.3324 52.2906 45.329 52.3241C45.3255 52.3576 45.3157 52.39 45.3 52.4196C45.2843 52.4492 45.2632 52.4753 45.2377 52.4965C44.7749 52.9201 44.1849 53.1676 43.5661 53.1976Z" fill="#231F20"/>
<path d="M36.5364 66.6364C36.504 66.6351 36.4721 66.6271 36.4426 66.613C36.4132 66.5988 36.3868 66.5788 36.365 66.554C36.3433 66.5292 36.3265 66.5002 36.3158 66.4686C36.3051 66.4371 36.3006 66.4036 36.3026 66.3703L36.5464 61.5085C36.5488 61.4751 36.5578 61.4425 36.5728 61.4127C36.5877 61.3829 36.6083 61.3564 36.6334 61.335C36.6584 61.3135 36.6874 61.2974 36.7186 61.2877C36.7498 61.2779 36.7826 61.2747 36.815 61.2782C36.8481 61.2795 36.8807 61.2876 36.9107 61.302C36.9407 61.3165 36.9677 61.3369 36.9899 61.3622C37.0121 61.3874 37.0293 61.417 37.0402 61.4492C37.0512 61.4814 37.0558 61.5154 37.0538 61.5495L36.7852 66.3959C36.7802 66.4606 36.752 66.5211 36.706 66.5656C36.66 66.6101 36.5995 66.6353 36.5364 66.6364Z" fill="#231F20"/>
<path d="M61.0681 47.4603C61.0681 47.4603 62.5606 47.3016 62.5606 47.7725C62.5606 48.755 61.496 48.5145 61.496 48.5145C61.496 48.5145 62.2124 49.103 61.8193 49.5943" fill="#FAF7F7"/>
<path d="M61.8094 49.8659C61.7516 49.8667 61.6953 49.8468 61.6502 49.8096C61.5997 49.7666 61.5677 49.7049 61.5612 49.6378C61.5547 49.5708 61.5742 49.5037 61.6154 49.4514C61.6389 49.4256 61.6565 49.3948 61.6668 49.3611C61.6771 49.3275 61.68 49.2918 61.6751 49.2569C61.615 49.0538 61.4951 48.875 61.3318 48.7451C61.2878 48.7099 61.2569 48.6601 61.2442 48.6043C61.2316 48.5484 61.2379 48.4897 61.2622 48.4381C61.2872 48.3863 61.3279 48.3443 61.3782 48.3185C61.4284 48.2926 61.4855 48.2843 61.5408 48.2948C61.7535 48.3466 61.9775 48.3137 62.1676 48.2027C62.2174 48.1516 62.2553 48.0896 62.2785 48.0214C62.3018 47.9532 62.3098 47.8804 62.302 47.8086C61.9068 47.7069 61.496 47.686 61.093 47.7472C61.0273 47.753 60.9619 47.7321 60.9108 47.6891C60.8597 47.6461 60.8269 47.5843 60.8194 47.5169C60.816 47.4833 60.8191 47.4493 60.8285 47.4169C60.8379 47.3845 60.8535 47.3543 60.8743 47.3281C60.8951 47.3019 60.9208 47.2803 60.9498 47.2644C60.9788 47.2485 61.0106 47.2386 61.0433 47.2354C61.3269 47.2047 62.2821 47.1331 62.6403 47.4555C62.7353 47.5458 62.7924 47.6706 62.7995 47.8035C62.8109 47.9521 62.788 48.1015 62.7326 48.2393C62.6773 48.3772 62.5911 48.4996 62.4811 48.5967C62.3498 48.7049 62.1941 48.7771 62.0283 48.8065C62.1051 48.9323 62.1543 49.0738 62.1726 49.2211C62.1822 49.3225 62.1723 49.425 62.1432 49.5225C62.1142 49.62 62.0667 49.7106 62.0035 49.7891C61.9784 49.8156 61.9481 49.8361 61.9146 49.8494C61.8811 49.8626 61.8452 49.8682 61.8094 49.8659Z" fill="#231F20"/>
<path d="M60.695 101.196L57.3866 102.839V100.341L60.8691 98.6167H63.5258V109.876H60.695V101.196Z" fill="#231F20"/>
</svg>
